<mxfile host="65bd71144e">
    <diagram id="WN91Z2CsZ92DGCxt_luQ" name="Page-1">
        <mxGraphModel dx="452" dy="646" grid="1" gridSize="10" guides="1" tooltips="1" connect="1" arrows="1" fold="1" page="1" pageScale="1" pageWidth="1100" pageHeight="850" math="0" shadow="0">
            <root>
                <mxCell id="0"/>
                <mxCell id="1" parent="0"/>
                <mxCell id="45" value="" style="rounded=0;whiteSpace=wrap;html=1;" vertex="1" parent="1">
                    <mxGeometry x="210" y="179" width="420" height="501" as="geometry"/>
                </mxCell>
                <mxCell id="2" value="" style="endArrow=classic;html=1;" edge="1" parent="1">
                    <mxGeometry width="50" height="50" relative="1" as="geometry">
                        <mxPoint x="180" y="400.29" as="sourcePoint"/>
                        <mxPoint x="360" y="400" as="targetPoint"/>
                    </mxGeometry>
                </mxCell>
                <mxCell id="3" value="" style="endArrow=classic;html=1;" edge="1" parent="1">
                    <mxGeometry width="50" height="50" relative="1" as="geometry">
                        <mxPoint x="180" y="420.29" as="sourcePoint"/>
                        <mxPoint x="360" y="560" as="targetPoint"/>
                        <Array as="points">
                            <mxPoint x="270" y="420"/>
                            <mxPoint x="270" y="560"/>
                        </Array>
                    </mxGeometry>
                </mxCell>
                <mxCell id="4" value="" style="endArrow=classic;html=1;" edge="1" parent="1">
                    <mxGeometry width="50" height="50" relative="1" as="geometry">
                        <mxPoint x="440" y="390" as="sourcePoint"/>
                        <mxPoint x="660" y="390" as="targetPoint"/>
                    </mxGeometry>
                </mxCell>
                <mxCell id="5" value="" style="endArrow=classic;html=1;" edge="1" parent="1">
                    <mxGeometry width="50" height="50" relative="1" as="geometry">
                        <mxPoint x="440" y="460" as="sourcePoint"/>
                        <mxPoint x="660" y="410" as="targetPoint"/>
                        <Array as="points">
                            <mxPoint x="530" y="460"/>
                            <mxPoint x="530" y="410"/>
                        </Array>
                    </mxGeometry>
                </mxCell>
                <mxCell id="6" value="" style="endArrow=classic;html=1;" edge="1" parent="1">
                    <mxGeometry width="50" height="50" relative="1" as="geometry">
                        <mxPoint x="440" y="330" as="sourcePoint"/>
                        <mxPoint x="660" y="370" as="targetPoint"/>
                        <Array as="points">
                            <mxPoint x="550" y="330"/>
                            <mxPoint x="550" y="370"/>
                        </Array>
                    </mxGeometry>
                </mxCell>
                <mxCell id="7" value="" style="endArrow=classic;html=1;" edge="1" parent="1">
                    <mxGeometry width="50" height="50" relative="1" as="geometry">
                        <mxPoint x="440" y="540" as="sourcePoint"/>
                        <mxPoint x="660" y="430" as="targetPoint"/>
                        <Array as="points">
                            <mxPoint x="560" y="540"/>
                            <mxPoint x="560" y="430"/>
                        </Array>
                    </mxGeometry>
                </mxCell>
                <mxCell id="8" value="Mblaze&lt;br&gt;IPI-BD" style="rounded=0;whiteSpace=wrap;html=1;" vertex="1" parent="1">
                    <mxGeometry x="360" y="240" width="80" height="60" as="geometry"/>
                </mxCell>
                <mxCell id="9" value="" style="endArrow=classic;html=1;" edge="1" parent="1">
                    <mxGeometry width="50" height="50" relative="1" as="geometry">
                        <mxPoint x="440" y="250" as="sourcePoint"/>
                        <mxPoint x="660" y="250" as="targetPoint"/>
                    </mxGeometry>
                </mxCell>
                <mxCell id="10" value="" style="endArrow=none;html=1;endFill=0;startArrow=classic;startFill=1;" edge="1" parent="1">
                    <mxGeometry width="50" height="50" relative="1" as="geometry">
                        <mxPoint x="440" y="270" as="sourcePoint"/>
                        <mxPoint x="660" y="270" as="targetPoint"/>
                    </mxGeometry>
                </mxCell>
                <mxCell id="11" value="OR IPI-BD" style="rounded=0;whiteSpace=wrap;html=1;" vertex="1" parent="1">
                    <mxGeometry x="360" y="310" width="80" height="60" as="geometry"/>
                </mxCell>
                <mxCell id="12" value="Counter_0 IP" style="rounded=0;whiteSpace=wrap;html=1;" vertex="1" parent="1">
                    <mxGeometry x="360" y="380" width="80" height="60" as="geometry"/>
                </mxCell>
                <mxCell id="13" value="Counter_1 IP" style="rounded=0;whiteSpace=wrap;html=1;" vertex="1" parent="1">
                    <mxGeometry x="360" y="450" width="80" height="60" as="geometry"/>
                </mxCell>
                <mxCell id="14" value="AND VHDL" style="rounded=0;whiteSpace=wrap;html=1;" vertex="1" parent="1">
                    <mxGeometry x="360" y="520" width="80" height="60" as="geometry"/>
                </mxCell>
                <mxCell id="15" value="Adder IP" style="rounded=0;whiteSpace=wrap;html=1;" vertex="1" parent="1">
                    <mxGeometry x="360" y="590" width="80" height="60" as="geometry"/>
                </mxCell>
                <mxCell id="16" value="" style="endArrow=classic;html=1;" edge="1" parent="1">
                    <mxGeometry width="50" height="50" relative="1" as="geometry">
                        <mxPoint x="320" y="610" as="sourcePoint"/>
                        <mxPoint x="360" y="609.66" as="targetPoint"/>
                    </mxGeometry>
                </mxCell>
                <mxCell id="17" value="" style="endArrow=classic;html=1;" edge="1" parent="1">
                    <mxGeometry width="50" height="50" relative="1" as="geometry">
                        <mxPoint x="320" y="630" as="sourcePoint"/>
                        <mxPoint x="360" y="629.66" as="targetPoint"/>
                    </mxGeometry>
                </mxCell>
                <mxCell id="18" value="3" style="text;html=1;align=center;verticalAlign=middle;resizable=0;points=[];autosize=1;strokeColor=none;fillColor=none;" vertex="1" parent="1">
                    <mxGeometry x="300" y="600" width="20" height="20" as="geometry"/>
                </mxCell>
                <mxCell id="19" value="5" style="text;html=1;align=center;verticalAlign=middle;resizable=0;points=[];autosize=1;strokeColor=none;fillColor=none;" vertex="1" parent="1">
                    <mxGeometry x="300" y="620" width="20" height="20" as="geometry"/>
                </mxCell>
                <mxCell id="20" value="sw0" style="text;html=1;align=center;verticalAlign=middle;resizable=0;points=[];autosize=1;strokeColor=none;fillColor=none;" vertex="1" parent="1">
                    <mxGeometry x="140" y="390" width="40" height="20" as="geometry"/>
                </mxCell>
                <mxCell id="21" value="sw1" style="text;html=1;align=center;verticalAlign=middle;resizable=0;points=[];autosize=1;strokeColor=none;fillColor=none;" vertex="1" parent="1">
                    <mxGeometry x="140" y="410" width="40" height="20" as="geometry"/>
                </mxCell>
                <mxCell id="23" value="" style="endArrow=classic;html=1;" edge="1" parent="1">
                    <mxGeometry width="50" height="50" relative="1" as="geometry">
                        <mxPoint x="180" y="199.28999999999985" as="sourcePoint"/>
                        <mxPoint x="210" y="199" as="targetPoint"/>
                    </mxGeometry>
                </mxCell>
                <mxCell id="24" value="" style="endArrow=classic;html=1;" edge="1" parent="1">
                    <mxGeometry width="50" height="50" relative="1" as="geometry">
                        <mxPoint x="180" y="219.28999999999985" as="sourcePoint"/>
                        <mxPoint x="210" y="219" as="targetPoint"/>
                    </mxGeometry>
                </mxCell>
                <mxCell id="25" value="G_VALUE0" style="text;html=1;align=center;verticalAlign=middle;resizable=0;points=[];autosize=1;strokeColor=none;fillColor=none;" vertex="1" parent="1">
                    <mxGeometry x="100" y="190" width="80" height="20" as="geometry"/>
                </mxCell>
                <mxCell id="27" value="G_VALUE1" style="text;html=1;align=center;verticalAlign=middle;resizable=0;points=[];autosize=1;strokeColor=none;fillColor=none;" vertex="1" parent="1">
                    <mxGeometry x="100" y="210" width="80" height="20" as="geometry"/>
                </mxCell>
                <mxCell id="28" value="" style="endArrow=classic;html=1;" edge="1" parent="1">
                    <mxGeometry width="50" height="50" relative="1" as="geometry">
                        <mxPoint x="290" y="400" as="sourcePoint"/>
                        <mxPoint x="360" y="470" as="targetPoint"/>
                        <Array as="points">
                            <mxPoint x="320" y="400"/>
                            <mxPoint x="320" y="470"/>
                        </Array>
                    </mxGeometry>
                </mxCell>
                <mxCell id="29" value="en" style="text;html=1;align=center;verticalAlign=middle;resizable=0;points=[];autosize=1;strokeColor=none;fillColor=none;" vertex="1" parent="1">
                    <mxGeometry x="318" y="400" width="30" height="20" as="geometry"/>
                </mxCell>
                <mxCell id="30" value="" style="endArrow=classic;html=1;" edge="1" parent="1">
                    <mxGeometry width="50" height="50" relative="1" as="geometry">
                        <mxPoint x="290" y="400.0000000000001" as="sourcePoint"/>
                        <mxPoint x="360" y="540" as="targetPoint"/>
                        <Array as="points">
                            <mxPoint x="320" y="400"/>
                            <mxPoint x="320" y="540"/>
                        </Array>
                    </mxGeometry>
                </mxCell>
                <mxCell id="31" value="" style="endArrow=classic;html=1;jumpStyle=arc;" edge="1" parent="1">
                    <mxGeometry width="50" height="50" relative="1" as="geometry">
                        <mxPoint x="230" y="419.9999999999999" as="sourcePoint"/>
                        <mxPoint x="360" y="350" as="targetPoint"/>
                        <Array as="points">
                            <mxPoint x="270" y="420"/>
                            <mxPoint x="270" y="350"/>
                        </Array>
                    </mxGeometry>
                </mxCell>
                <mxCell id="32" value="" style="endArrow=classic;html=1;jumpStyle=arc;" edge="1" parent="1">
                    <mxGeometry width="50" height="50" relative="1" as="geometry">
                        <mxPoint x="210" y="399.9999999999999" as="sourcePoint"/>
                        <mxPoint x="360" y="330" as="targetPoint"/>
                        <Array as="points">
                            <mxPoint x="250" y="400"/>
                            <mxPoint x="250" y="330"/>
                        </Array>
                    </mxGeometry>
                </mxCell>
                <mxCell id="33" value="uart tx" style="text;html=1;align=center;verticalAlign=middle;resizable=0;points=[];autosize=1;strokeColor=none;fillColor=none;" vertex="1" parent="1">
                    <mxGeometry x="660" y="239" width="50" height="20" as="geometry"/>
                </mxCell>
                <mxCell id="34" value="uart rx" style="text;html=1;align=center;verticalAlign=middle;resizable=0;points=[];autosize=1;strokeColor=none;fillColor=none;" vertex="1" parent="1">
                    <mxGeometry x="660" y="259" width="50" height="20" as="geometry"/>
                </mxCell>
                <mxCell id="35" value="led0" style="text;html=1;align=center;verticalAlign=middle;resizable=0;points=[];autosize=1;strokeColor=none;fillColor=none;" vertex="1" parent="1">
                    <mxGeometry x="660" y="360" width="40" height="20" as="geometry"/>
                </mxCell>
                <mxCell id="36" value="led1" style="text;html=1;align=center;verticalAlign=middle;resizable=0;points=[];autosize=1;strokeColor=none;fillColor=none;" vertex="1" parent="1">
                    <mxGeometry x="660" y="380" width="40" height="20" as="geometry"/>
                </mxCell>
                <mxCell id="37" value="led2" style="text;html=1;align=center;verticalAlign=middle;resizable=0;points=[];autosize=1;strokeColor=none;fillColor=none;" vertex="1" parent="1">
                    <mxGeometry x="660" y="400" width="40" height="20" as="geometry"/>
                </mxCell>
                <mxCell id="38" value="led3" style="text;html=1;align=center;verticalAlign=middle;resizable=0;points=[];autosize=1;strokeColor=none;fillColor=none;" vertex="1" parent="1">
                    <mxGeometry x="660" y="420" width="40" height="20" as="geometry"/>
                </mxCell>
                <mxCell id="39" value="&amp;gt; 7" style="ellipse;whiteSpace=wrap;html=1;" vertex="1" parent="1">
                    <mxGeometry x="470" y="605" width="30" height="30" as="geometry"/>
                </mxCell>
                <mxCell id="40" value="" style="endArrow=classic;html=1;" edge="1" parent="1">
                    <mxGeometry width="50" height="50" relative="1" as="geometry">
                        <mxPoint x="440" y="619.9999999999998" as="sourcePoint"/>
                        <mxPoint x="470" y="620" as="targetPoint"/>
                    </mxGeometry>
                </mxCell>
                <mxCell id="41" value="" style="endArrow=classic;html=1;" edge="1" parent="1">
                    <mxGeometry width="50" height="50" relative="1" as="geometry">
                        <mxPoint x="500" y="619.1699999999998" as="sourcePoint"/>
                        <mxPoint x="660" y="450" as="targetPoint"/>
                        <Array as="points">
                            <mxPoint x="580" y="619"/>
                            <mxPoint x="580" y="450"/>
                        </Array>
                    </mxGeometry>
                </mxCell>
                <mxCell id="42" value="led4" style="text;html=1;align=center;verticalAlign=middle;resizable=0;points=[];autosize=1;strokeColor=none;fillColor=none;" vertex="1" parent="1">
                    <mxGeometry x="660" y="440" width="40" height="20" as="geometry"/>
                </mxCell>
                <mxCell id="43" value="and G_VALUE0" style="text;html=1;align=center;verticalAlign=middle;resizable=0;points=[];autosize=1;strokeColor=none;fillColor=none;" vertex="1" parent="1">
                    <mxGeometry x="440" y="370" width="100" height="20" as="geometry"/>
                </mxCell>
                <mxCell id="44" value="&lt;span style=&quot;color: rgb(0 , 0 , 0) ; font-family: &amp;#34;helvetica&amp;#34; ; font-size: 12px ; font-style: normal ; font-weight: 400 ; letter-spacing: normal ; text-align: center ; text-indent: 0px ; text-transform: none ; word-spacing: 0px ; background-color: rgb(248 , 249 , 250) ; display: inline ; float: none&quot;&gt;or G_VALUE1&lt;/span&gt;" style="text;whiteSpace=wrap;html=1;" vertex="1" parent="1">
                    <mxGeometry x="445" y="435" width="90" height="30" as="geometry"/>
                </mxCell>
                <mxCell id="46" value="&lt;b&gt;example_top.vhd&lt;/b&gt;" style="text;html=1;strokeColor=none;fillColor=none;align=center;verticalAlign=middle;whiteSpace=wrap;rounded=0;" vertex="1" parent="1">
                    <mxGeometry x="348" y="185" width="112" height="30" as="geometry"/>
                </mxCell>
            </root>
        </mxGraphModel>
    </diagram>
</mxfile>